<svg xmlns="http://www.w3.org/2000/svg" width="1000" height="320" viewBox="0 0 1000 320" font-family="Segoe UI, Ubuntu, Helvetica, Arial, sans-serif">
<defs><linearGradient id="fill" x1="0" y1="0" x2="0" y2="1"><stop offset="0" stop-color="#00AEFF" stop-opacity="0.35"/><stop offset="1" stop-color="#00AEFF" stop-opacity="0"/></linearGradient></defs>
<rect x="0.5" y="0.5" width="999" height="319" rx="4.5" fill="#22272e" stroke="#444c56"/>
<text x="500.0" y="36" text-anchor="middle" font-size="18" font-weight="600" fill="#00AEFF">Gi0tto's contributions, last 31 days</text>
<line x1="60" y1="270.0" x2="970" y2="270.0" stroke="#373e47"/>
<text x="50" y="274.0" text-anchor="end" font-size="12" fill="#adbac7">0</text>
<line x1="60" y1="217.5" x2="970" y2="217.5" stroke="#373e47"/>
<text x="50" y="221.5" text-anchor="end" font-size="12" fill="#adbac7">50</text>
<line x1="60" y1="165.0" x2="970" y2="165.0" stroke="#373e47"/>
<text x="50" y="169.0" text-anchor="end" font-size="12" fill="#adbac7">100</text>
<line x1="60" y1="112.5" x2="970" y2="112.5" stroke="#373e47"/>
<text x="50" y="116.5" text-anchor="end" font-size="12" fill="#adbac7">150</text>
<line x1="60" y1="60.0" x2="970" y2="60.0" stroke="#373e47"/>
<text x="50" y="64.0" text-anchor="end" font-size="12" fill="#adbac7">200</text>
<text x="60.0" y="292" text-anchor="middle" font-size="12" fill="#adbac7">25</text>
<text x="90.3" y="292" text-anchor="middle" font-size="12" fill="#adbac7">26</text>
<text x="120.7" y="292" text-anchor="middle" font-size="12" fill="#adbac7">27</text>
<text x="151.0" y="292" text-anchor="middle" font-size="12" fill="#adbac7">28</text>
<text x="181.3" y="292" text-anchor="middle" font-size="12" fill="#adbac7">29</text>
<text x="211.7" y="292" text-anchor="middle" font-size="12" fill="#adbac7">30</text>
<text x="242.0" y="292" text-anchor="middle" font-size="12" fill="#adbac7">31</text>
<text x="272.3" y="292" text-anchor="middle" font-size="12" fill="#adbac7">1</text>
<text x="302.7" y="292" text-anchor="middle" font-size="12" fill="#adbac7">2</text>
<text x="333.0" y="292" text-anchor="middle" font-size="12" fill="#adbac7">3</text>
<text x="363.3" y="292" text-anchor="middle" font-size="12" fill="#adbac7">4</text>
<text x="393.7" y="292" text-anchor="middle" font-size="12" fill="#adbac7">5</text>
<text x="424.0" y="292" text-anchor="middle" font-size="12" fill="#adbac7">6</text>
<text x="454.3" y="292" text-anchor="middle" font-size="12" fill="#adbac7">7</text>
<text x="484.7" y="292" text-anchor="middle" font-size="12" fill="#adbac7">8</text>
<text x="515.0" y="292" text-anchor="middle" font-size="12" fill="#adbac7">9</text>
<text x="545.3" y="292" text-anchor="middle" font-size="12" fill="#adbac7">10</text>
<text x="575.7" y="292" text-anchor="middle" font-size="12" fill="#adbac7">11</text>
<text x="606.0" y="292" text-anchor="middle" font-size="12" fill="#adbac7">12</text>
<text x="636.3" y="292" text-anchor="middle" font-size="12" fill="#adbac7">13</text>
<text x="666.7" y="292" text-anchor="middle" font-size="12" fill="#adbac7">14</text>
<text x="697.0" y="292" text-anchor="middle" font-size="12" fill="#adbac7">15</text>
<text x="727.3" y="292" text-anchor="middle" font-size="12" fill="#adbac7">16</text>
<text x="757.7" y="292" text-anchor="middle" font-size="12" fill="#adbac7">17</text>
<text x="788.0" y="292" text-anchor="middle" font-size="12" fill="#adbac7">18</text>
<text x="818.3" y="292" text-anchor="middle" font-size="12" fill="#adbac7">19</text>
<text x="848.7" y="292" text-anchor="middle" font-size="12" fill="#adbac7">20</text>
<text x="879.0" y="292" text-anchor="middle" font-size="12" fill="#adbac7">21</text>
<text x="909.3" y="292" text-anchor="middle" font-size="12" fill="#adbac7">22</text>
<text x="939.7" y="292" text-anchor="middle" font-size="12" fill="#adbac7">23</text>
<text x="970.0" y="292" text-anchor="middle" font-size="12" fill="#adbac7">24</text>
<polygon points="60,270 60.0,270.0 90.3,270.0 120.7,270.0 151.0,270.0 181.3,270.0 211.7,270.0 242.0,270.0 272.3,270.0 302.7,270.0 333.0,270.0 363.3,270.0 393.7,270.0 424.0,270.0 454.3,270.0 484.7,270.0 515.0,270.0 545.3,270.0 575.7,270.0 606.0,270.0 636.3,270.0 666.7,270.0 697.0,270.0 727.3,270.0 757.7,270.0 788.0,270.0 818.3,270.0 848.7,270.0 879.0,270.0 909.3,83.1 939.7,129.3 970.0,208.1 970,270" fill="url(#fill)"/>
<polyline points="60.0,270.0 90.3,270.0 120.7,270.0 151.0,270.0 181.3,270.0 211.7,270.0 242.0,270.0 272.3,270.0 302.7,270.0 333.0,270.0 363.3,270.0 393.7,270.0 424.0,270.0 454.3,270.0 484.7,270.0 515.0,270.0 545.3,270.0 575.7,270.0 606.0,270.0 636.3,270.0 666.7,270.0 697.0,270.0 727.3,270.0 757.7,270.0 788.0,270.0 818.3,270.0 848.7,270.0 879.0,270.0 909.3,83.1 939.7,129.3 970.0,208.1" fill="none" stroke="#00AEFF" stroke-width="2.5" stroke-linejoin="round"/>
<circle cx="60.0" cy="270.0" r="3.5" fill="#22272e" stroke="#00AEFF" stroke-width="2"><title>2026-08-25: 0</title></circle>
<circle cx="90.3" cy="270.0" r="3.5" fill="#22272e" stroke="#00AEFF" stroke-width="2"><title>2026-08-26: 0</title></circle>
<circle cx="120.7" cy="270.0" r="3.5" fill="#22272e" stroke="#00AEFF" stroke-width="2"><title>2026-08-27: 0</title></circle>
<circle cx="151.0" cy="270.0" r="3.5" fill="#22272e" stroke="#00AEFF" stroke-width="2"><title>2026-08-28: 0</title></circle>
<circle cx="181.3" cy="270.0" r="3.5" fill="#22272e" stroke="#00AEFF" stroke-width="2"><title>2026-08-29: 0</title></circle>
<circle cx="211.7" cy="270.0" r="3.5" fill="#22272e" stroke="#00AEFF" stroke-width="2"><title>2026-08-30: 0</title></circle>
<circle cx="242.0" cy="270.0" r="3.5" fill="#22272e" stroke="#00AEFF" stroke-width="2"><title>2026-08-31: 0</title></circle>
<circle cx="272.3" cy="270.0" r="3.5" fill="#22272e" stroke="#00AEFF" stroke-width="2"><title>2026-09-01: 0</title></circle>
<circle cx="302.7" cy="270.0" r="3.5" fill="#22272e" stroke="#00AEFF" stroke-width="2"><title>2026-09-02: 0</title></circle>
<circle cx="333.0" cy="270.0" r="3.5" fill="#22272e" stroke="#00AEFF" stroke-width="2"><title>2026-09-03: 0</title></circle>
<circle cx="363.3" cy="270.0" r="3.5" fill="#22272e" stroke="#00AEFF" stroke-width="2"><title>2026-09-04: 0</title></circle>
<circle cx="393.7" cy="270.0" r="3.5" fill="#22272e" stroke="#00AEFF" stroke-width="2"><title>2026-09-05: 0</title></circle>
<circle cx="424.0" cy="270.0" r="3.5" fill="#22272e" stroke="#00AEFF" stroke-width="2"><title>2026-09-06: 0</title></circle>
<circle cx="454.3" cy="270.0" r="3.5" fill="#22272e" stroke="#00AEFF" stroke-width="2"><title>2026-09-07: 0</title></circle>
<circle cx="484.7" cy="270.0" r="3.5" fill="#22272e" stroke="#00AEFF" stroke-width="2"><title>2026-09-08: 0</title></circle>
<circle cx="515.0" cy="270.0" r="3.5" fill="#22272e" stroke="#00AEFF" stroke-width="2"><title>2026-09-09: 0</title></circle>
<circle cx="545.3" cy="270.0" r="3.5" fill="#22272e" stroke="#00AEFF" stroke-width="2"><title>2026-09-10: 0</title></circle>
<circle cx="575.7" cy="270.0" r="3.5" fill="#22272e" stroke="#00AEFF" stroke-width="2"><title>2026-09-11: 0</title></circle>
<circle cx="606.0" cy="270.0" r="3.5" fill="#22272e" stroke="#00AEFF" stroke-width="2"><title>2026-09-12: 0</title></circle>
<circle cx="636.3" cy="270.0" r="3.5" fill="#22272e" stroke="#00AEFF" stroke-width="2"><title>2026-09-13: 0</title></circle>
<circle cx="666.7" cy="270.0" r="3.5" fill="#22272e" stroke="#00AEFF" stroke-width="2"><title>2026-09-14: 0</title></circle>
<circle cx="697.0" cy="270.0" r="3.5" fill="#22272e" stroke="#00AEFF" stroke-width="2"><title>2026-09-15: 0</title></circle>
<circle cx="727.3" cy="270.0" r="3.5" fill="#22272e" stroke="#00AEFF" stroke-width="2"><title>2026-09-16: 0</title></circle>
<circle cx="757.7" cy="270.0" r="3.5" fill="#22272e" stroke="#00AEFF" stroke-width="2"><title>2026-09-17: 0</title></circle>
<circle cx="788.0" cy="270.0" r="3.5" fill="#22272e" stroke="#00AEFF" stroke-width="2"><title>2026-09-18: 0</title></circle>
<circle cx="818.3" cy="270.0" r="3.5" fill="#22272e" stroke="#00AEFF" stroke-width="2"><title>2026-09-19: 0</title></circle>
<circle cx="848.7" cy="270.0" r="3.5" fill="#22272e" stroke="#00AEFF" stroke-width="2"><title>2026-09-20: 0</title></circle>
<circle cx="879.0" cy="270.0" r="3.5" fill="#22272e" stroke="#00AEFF" stroke-width="2"><title>2026-09-21: 0</title></circle>
<circle cx="909.3" cy="83.1" r="3.5" fill="#22272e" stroke="#00AEFF" stroke-width="2"><title>2026-09-22: 178</title></circle>
<circle cx="939.7" cy="129.3" r="3.5" fill="#22272e" stroke="#00AEFF" stroke-width="2"><title>2026-09-23: 134</title></circle>
<circle cx="970.0" cy="208.1" r="3.5" fill="#22272e" stroke="#00AEFF" stroke-width="2"><title>2026-09-24: 59</title></circle>
<text x="500.0" y="312" text-anchor="middle" font-size="12" fill="#adbac7">Aug 25 to Sep 24</text>
</svg>
